<svg width="389" height="54" viewBox="0 0 389 54" fill="none" xmlns="http://www.w3.org/2000/svg">
<path fill-rule="evenodd" clip-rule="evenodd" d="M27 48.9375C27 48.9375 43.875 37.125 43.875 21.9375C43.875 17.462 42.0971 13.1697 38.9324 10.0051C35.7677 6.8404 31.4755 5.0625 27 5.0625C22.5245 5.0625 18.2322 6.8404 15.0676 10.0051C11.9029 13.1697 10.125 17.462 10.125 21.9375C10.125 37.125 27 48.9375 27 48.9375ZM33.75 21.9375C33.75 25.6654 30.7279 28.6875 27 28.6875C23.2721 28.6875 20.25 25.6654 20.25 21.9375C20.25 18.2096 23.2721 15.1875 27 15.1875C30.7279 15.1875 33.75 18.2096 33.75 21.9375Z" fill="#FF9E65"/>
<path fill-rule="evenodd" clip-rule="evenodd" d="M362 48.9375C362 48.9375 378.875 37.125 378.875 21.9375C378.875 17.462 377.097 13.1697 373.932 10.0051C370.768 6.8404 366.476 5.0625 362 5.0625C357.524 5.0625 353.232 6.8404 350.068 10.0051C346.903 13.1697 345.125 17.462 345.125 21.9375C345.125 37.125 362 48.9375 362 48.9375ZM368.75 21.9375C368.75 25.6654 365.728 28.6875 362 28.6875C358.272 28.6875 355.25 25.6654 355.25 21.9375C355.25 18.2096 358.272 15.1875 362 15.1875C365.728 15.1875 368.75 18.2096 368.75 21.9375Z" fill="#FF9E65"/>
</svg>
