<svg width="1070" height="353" viewBox="0 0 1070 353" fill="none" xmlns="http://www.w3.org/2000/svg">
<path fill-rule="evenodd" clip-rule="evenodd" d="M317.949 352.957C317.949 352.957 334.828 341.142 334.828 325.951C334.828 321.475 333.05 317.181 329.885 314.016C326.719 310.851 322.426 309.072 317.949 309.072C313.473 309.072 309.179 310.851 306.014 314.016C302.849 317.181 301.07 321.475 301.07 325.951C301.07 341.142 317.949 352.957 317.949 352.957ZM324.701 325.951C324.701 329.68 321.678 332.703 317.949 332.703C314.22 332.703 311.198 329.68 311.198 325.951C311.198 322.222 314.22 319.2 317.949 319.2C321.678 319.2 324.701 322.222 324.701 325.951Z" fill="#FF9E65"/>
<path fill-rule="evenodd" clip-rule="evenodd" d="M896.084 330.952C896.084 330.952 912.963 319.137 912.963 303.946C912.963 299.469 911.185 295.176 908.02 292.011C904.854 288.845 900.561 287.067 896.084 287.067C891.608 287.067 887.315 288.845 884.149 292.011C880.984 295.176 879.205 299.469 879.205 303.946C879.205 319.137 896.084 330.952 896.084 330.952ZM902.836 303.946C902.836 307.675 899.813 310.698 896.084 310.698C892.356 310.698 889.333 307.675 889.333 303.946C889.333 300.217 892.356 297.194 896.084 297.194C899.813 297.194 902.836 300.217 902.836 303.946Z" fill="#FF9E65"/>
<path fill-rule="evenodd" clip-rule="evenodd" d="M725.044 327.952C725.044 327.952 741.923 316.136 741.923 300.945C741.923 296.469 740.145 292.176 736.98 289.01C733.814 285.845 729.521 284.066 725.044 284.066C720.568 284.066 716.275 285.845 713.109 289.01C709.944 292.176 708.165 296.469 708.165 300.945C708.165 316.136 725.044 327.952 725.044 327.952ZM731.796 300.945C731.796 304.674 728.773 307.697 725.044 307.697C721.316 307.697 718.293 304.674 718.293 300.945C718.293 297.217 721.316 294.194 725.044 294.194C728.773 294.194 731.796 297.217 731.796 300.945Z" fill="#FF9E65"/>
<path fill-rule="evenodd" clip-rule="evenodd" d="M68.8911 288.943C68.8911 288.943 85.77 277.127 85.77 261.936C85.77 257.46 83.9917 253.166 80.8263 250.001C77.6609 246.836 73.3677 245.057 68.8911 245.057C64.4145 245.057 60.1213 246.836 56.9559 250.001C53.7905 253.166 52.0122 257.46 52.0122 261.936C52.0122 277.127 68.8911 288.943 68.8911 288.943ZM75.6427 261.936C75.6427 265.665 72.6199 268.688 68.8911 268.688C65.1623 268.688 62.1395 265.665 62.1395 261.936C62.1395 258.207 65.1623 255.185 68.8911 255.185C72.6199 255.185 75.6427 258.207 75.6427 261.936Z" fill="#FF9E65"/>
<path fill-rule="evenodd" clip-rule="evenodd" d="M1044.12 276.94C1044.12 276.94 1061 265.124 1061 249.933C1061 245.457 1059.22 241.164 1056.05 237.998C1052.89 234.833 1048.6 233.054 1044.12 233.054C1039.64 233.054 1035.35 234.833 1032.18 237.998C1029.02 241.164 1027.24 245.457 1027.24 249.933C1027.24 265.124 1044.12 276.94 1044.12 276.94ZM1050.87 249.933C1050.87 253.662 1047.85 256.685 1044.12 256.685C1040.39 256.685 1037.37 253.662 1037.37 249.933C1037.37 246.205 1040.39 243.182 1044.12 243.182C1047.85 243.182 1050.87 246.205 1050.87 249.933Z" fill="#FF9E65"/>
<path fill-rule="evenodd" clip-rule="evenodd" d="M526.998 234.93C526.998 234.93 543.877 223.115 543.877 207.924C543.877 203.447 542.099 199.154 538.933 195.988C535.768 192.823 531.475 191.045 526.998 191.045C522.522 191.045 518.228 192.823 515.063 195.988C511.897 199.154 510.119 203.447 510.119 207.924C510.119 223.115 526.998 234.93 526.998 234.93ZM533.75 207.924C533.75 211.652 530.727 214.675 526.998 214.675C523.269 214.675 520.247 211.652 520.247 207.924C520.247 204.195 523.269 201.172 526.998 201.172C530.727 201.172 533.75 204.195 533.75 207.924Z" fill="#FF9E65"/>
<path fill-rule="evenodd" clip-rule="evenodd" d="M967.101 157.912C967.101 157.912 983.98 146.097 983.98 130.906C983.98 126.429 982.202 122.136 979.036 118.97C975.871 115.805 971.578 114.027 967.101 114.027C962.624 114.027 958.331 115.805 955.166 118.97C952 122.136 950.222 126.429 950.222 130.906C950.222 146.097 967.101 157.912 967.101 157.912ZM973.853 130.906C973.853 134.634 970.83 137.657 967.101 137.657C963.372 137.657 960.349 134.634 960.349 130.906C960.349 127.177 963.372 124.154 967.101 124.154C970.83 124.154 973.853 127.177 973.853 130.906Z" fill="#FF9E65"/>
<path fill-rule="evenodd" clip-rule="evenodd" d="M1053.12 97.8979C1053.12 97.8979 1070 86.0826 1070 70.8916C1070 66.415 1068.22 62.1218 1065.06 58.9563C1061.89 55.7909 1057.6 54.0126 1053.12 54.0126C1048.64 54.0126 1044.35 55.7909 1041.19 58.9563C1038.02 62.1218 1036.24 66.415 1036.24 70.8916C1036.24 86.0826 1053.12 97.8979 1053.12 97.8979ZM1059.87 70.8916C1059.87 74.6204 1056.85 77.6431 1053.12 77.6431C1049.39 77.6431 1046.37 74.6204 1046.37 70.8916C1046.37 67.1628 1049.39 64.14 1053.12 64.14C1056.85 64.14 1059.87 67.1628 1059.87 70.8916Z" fill="#FF9E65"/>
<path fill-rule="evenodd" clip-rule="evenodd" d="M350.957 97.8979C350.957 97.8979 367.836 86.0826 367.836 70.8916C367.836 66.415 366.058 62.1218 362.892 58.9563C359.727 55.7909 355.434 54.0126 350.957 54.0126C346.48 54.0126 342.187 55.7909 339.022 58.9563C335.856 62.1218 334.078 66.415 334.078 70.8916C334.078 86.0826 350.957 97.8979 350.957 97.8979ZM357.709 70.8916C357.709 74.6204 354.686 77.6431 350.957 77.6431C347.228 77.6431 344.205 74.6204 344.205 70.8916C344.205 67.1628 347.228 64.14 350.957 64.14C354.686 64.14 357.709 67.1628 357.709 70.8916Z" fill="#FF9E65"/>
<path fill-rule="evenodd" clip-rule="evenodd" d="M716.042 80.8939C716.042 80.8939 732.921 69.0786 732.921 53.8876C732.921 49.411 731.143 45.1178 727.978 41.9524C724.812 38.787 720.519 37.0086 716.042 37.0086C711.566 37.0086 707.272 38.787 704.107 41.9524C700.942 45.1178 699.163 49.411 699.163 53.8876C699.163 69.0786 716.042 80.8939 716.042 80.8939ZM722.794 53.8876C722.794 57.6164 719.771 60.6392 716.042 60.6392C712.314 60.6392 709.291 57.6164 709.291 53.8876C709.291 50.1588 712.314 47.136 716.042 47.136C719.771 47.136 722.794 50.1588 722.794 53.8876Z" fill="#FF9E65"/>
<path fill-rule="evenodd" clip-rule="evenodd" d="M217.926 70.8916C217.926 70.8916 234.805 59.0763 234.805 43.8853C234.805 39.4087 233.027 35.1155 229.861 31.95C226.696 28.7846 222.402 27.0063 217.926 27.0063C213.449 27.0063 209.156 28.7846 205.991 31.95C202.825 35.1155 201.047 39.4087 201.047 43.8853C201.047 59.0763 217.926 70.8916 217.926 70.8916ZM224.677 43.8853C224.677 47.614 221.655 50.6368 217.926 50.6368C214.197 50.6368 211.174 47.614 211.174 43.8853C211.174 40.1565 214.197 37.1337 217.926 37.1337C221.655 37.1337 224.677 40.1565 224.677 43.8853Z" fill="#FF9E65"/>
<path fill-rule="evenodd" clip-rule="evenodd" d="M565.007 43.8853C565.007 43.8853 581.886 32.07 581.886 16.8789C581.886 12.4024 580.108 8.10914 576.942 4.94373C573.777 1.77831 569.484 0 565.007 0C560.53 0 556.237 1.77831 553.072 4.94373C549.906 8.10914 548.128 12.4024 548.128 16.8789C548.128 32.07 565.007 43.8853 565.007 43.8853ZM571.759 16.8789C571.759 20.6077 568.736 23.6305 565.007 23.6305C561.278 23.6305 558.255 20.6077 558.255 16.8789C558.255 13.1502 561.278 10.1274 565.007 10.1274C568.736 10.1274 571.759 13.1502 571.759 16.8789Z" fill="#FF9E65"/>
<path fill-rule="evenodd" clip-rule="evenodd" d="M16.8789 43.8853C16.8789 43.8853 33.7579 32.07 33.7579 16.8789C33.7579 12.4024 31.9796 8.10914 28.8142 4.94373C25.6487 1.77831 21.3555 0 16.8789 0C12.4024 0 8.10914 1.77831 4.94373 4.94373C1.77831 8.10914 0 12.4024 0 16.8789C0 32.07 16.8789 43.8853 16.8789 43.8853ZM23.6305 16.8789C23.6305 20.6077 20.6077 23.6305 16.8789 23.6305C13.1502 23.6305 10.1274 20.6077 10.1274 16.8789C10.1274 13.1502 13.1502 10.1274 16.8789 10.1274C20.6077 10.1274 23.6305 13.1502 23.6305 16.8789Z" fill="#FF9E65"/>
</svg>
