<svg width="12" height="13" viewBox="0 0 12 13" fill="none" xmlns="http://www.w3.org/2000/svg">
<path d="M9.91076 4.1783C11.0646 4.1783 11.9999 3.24296 11.9999 2.08915C11.9999 0.935345 11.0646 0 9.91076 0C8.75695 0 7.8216 0.935345 7.8216 2.08915C7.8216 3.24296 8.75695 4.1783 9.91076 4.1783Z" fill="#636363"/>
<path d="M2.08915 4.1783C3.24296 4.1783 4.1783 3.24296 4.1783 2.08915C4.1783 0.935345 3.24296 0 2.08915 0C0.935345 0 0 0.935345 0 2.08915C0 3.24296 0.935345 4.1783 2.08915 4.1783Z" fill="#636363"/>
<path d="M9.91076 12.8594C11.0646 12.8594 11.9999 11.9241 11.9999 10.7703C11.9999 9.61645 11.0646 8.6811 9.91076 8.6811C8.75695 8.6811 7.8216 9.61645 7.8216 10.7703C7.8216 11.9241 8.75695 12.8594 9.91076 12.8594Z" fill="#636363"/>
<path d="M2.08915 12.8594C3.24296 12.8594 4.1783 11.9241 4.1783 10.7703C4.1783 9.61645 3.24296 8.6811 2.08915 8.6811C0.935345 8.6811 0 9.61645 0 10.7703C0 11.9241 0.935345 12.8594 2.08915 12.8594Z" fill="#636363"/>
</svg>
