<svg width="299" height="417" viewBox="0 0 299 417" fill="none" xmlns="http://www.w3.org/2000/svg">
<path fill-rule="evenodd" clip-rule="evenodd" d="M257.952 417C257.952 417 274.832 405.184 274.832 389.992C274.832 385.515 273.054 381.222 269.888 378.056C266.723 374.89 262.429 373.112 257.952 373.112C253.475 373.112 249.182 374.89 246.016 378.056C242.851 381.222 241.072 385.515 241.072 389.992C241.072 405.184 257.952 417 257.952 417ZM264.704 389.992C264.704 393.721 261.681 396.744 257.952 396.744C254.223 396.744 251.2 393.721 251.2 389.992C251.2 386.263 254.223 383.24 257.952 383.24C261.681 383.24 264.704 386.263 264.704 389.992Z" fill="#FF9F65"/>
<path fill-rule="evenodd" clip-rule="evenodd" d="M16.8801 405.997C16.8801 405.997 33.7601 394.181 33.7601 378.989C33.7601 374.512 31.9817 370.218 28.8161 367.053C25.6504 363.887 21.3569 362.109 16.8801 362.109C12.4032 362.109 8.10968 363.887 4.94406 367.053C1.77843 370.218 0 374.512 0 378.989C0 394.181 16.8801 405.997 16.8801 405.997ZM23.6321 378.989C23.6321 382.718 20.6091 385.741 16.8801 385.741C13.151 385.741 10.128 382.718 10.128 378.989C10.128 375.26 13.151 372.237 16.8801 372.237C20.6091 372.237 23.6321 375.26 23.6321 378.989Z" fill="#FF9F65"/>
<path fill-rule="evenodd" clip-rule="evenodd" d="M28.8837 92.9028C28.8837 92.9028 45.7637 81.0868 45.7637 65.8948C45.7637 61.4179 43.9853 57.1244 40.8197 53.9587C37.654 50.7931 33.3605 49.0147 28.8837 49.0147C24.4068 49.0147 20.1133 50.7931 16.9477 53.9587C13.782 57.1244 12.0036 61.4179 12.0036 65.8948C12.0036 81.0868 28.8837 92.9028 28.8837 92.9028ZM35.6357 65.8948C35.6357 69.6238 32.6127 72.6468 28.8837 72.6468C25.1546 72.6468 22.1316 69.6238 22.1316 65.8948C22.1316 62.1657 25.1546 59.1427 28.8837 59.1427C32.6127 59.1427 35.6357 62.1657 35.6357 65.8948Z" fill="#FF9F65"/>
<path fill-rule="evenodd" clip-rule="evenodd" d="M281.96 122.912C281.96 122.912 298.84 111.096 298.84 95.9037C298.84 91.4269 297.061 87.1334 293.896 83.9677C290.73 80.8021 286.436 79.0237 281.96 79.0237C277.483 79.0237 273.189 80.8021 270.024 83.9677C266.858 87.1334 265.079 91.4269 265.079 95.9037C265.079 111.096 281.96 122.912 281.96 122.912ZM288.712 95.9037C288.712 99.6328 285.689 102.656 281.96 102.656C278.23 102.656 275.207 99.6328 275.207 95.9037C275.207 92.1747 278.23 89.1517 281.96 89.1517C285.689 89.1517 288.712 92.1747 288.712 95.9037Z" fill="#FF9F65"/>
<path fill-rule="evenodd" clip-rule="evenodd" d="M167.925 43.8882C167.925 43.8882 184.805 32.0721 184.805 16.8801C184.805 12.4032 183.027 8.10968 179.861 4.94406C176.696 1.77843 172.402 0 167.925 0C163.448 0 159.155 1.77843 155.989 4.94406C152.824 8.10968 151.045 12.4032 151.045 16.8801C151.045 32.0721 167.925 43.8882 167.925 43.8882ZM174.677 16.8801C174.677 20.6091 171.654 23.6321 167.925 23.6321C164.196 23.6321 161.173 20.6091 161.173 16.8801C161.173 13.151 164.196 10.128 167.925 10.128C171.654 10.128 174.677 13.151 174.677 16.8801Z" fill="#FF9F65"/>
</svg>
