<svg width="20" height="20" viewBox="0 0 20 20" fill="none" xmlns="http://www.w3.org/2000/svg">
<path d="M7.22656 9.75003C7.8697 11.0782 8.94366 12.1494 10.2734 12.7891C10.3715 12.8355 10.48 12.8556 10.5882 12.8474C10.6965 12.8392 10.8007 12.8029 10.8906 12.7422L12.8437 11.4375C12.93 11.379 13.0298 11.3433 13.1336 11.3337C13.2374 11.3242 13.342 11.3411 13.4375 11.3828L17.0938 12.9532C17.2187 13.0052 17.3231 13.0968 17.3909 13.214C17.4586 13.3311 17.486 13.4673 17.4688 13.6016C17.3529 14.5061 16.9114 15.3373 16.2269 15.9398C15.5424 16.5424 14.6619 16.8748 13.75 16.875C10.9321 16.875 8.22956 15.7556 6.23699 13.763C4.24442 11.7705 3.125 9.06795 3.125 6.25003C3.12521 5.33815 3.45767 4.45759 4.06018 3.77312C4.66269 3.08864 5.49395 2.64716 6.39844 2.53128C6.53269 2.51403 6.66888 2.5414 6.78605 2.60916C6.90322 2.67692 6.99487 2.78132 7.04687 2.90628L8.61719 6.57034C8.65802 6.66436 8.67511 6.76698 8.66693 6.86916C8.65876 6.97134 8.62558 7.06994 8.57031 7.15628L7.26562 9.14065C7.20754 9.2304 7.17345 9.33355 7.16661 9.44024C7.15977 9.54693 7.18041 9.65359 7.22656 9.75003V9.75003Z" stroke="#6E6E6E" stroke-width="1.5" stroke-linecap="round" stroke-linejoin="round"/>
</svg>
